# 3ds Max Wavefront OBJ Exporter v0.97b - (c)2007 guruware
# File Created: 02.02.2017 20:09:08

#
# object Box162
#

v  -5200.00 8400.00 -22500.00
v  -5200.00 8400.00 -2300.00
v  -4749.83 8400.00 -2740.00
v  -4749.83 8400.00 -22260.00
v  5200.00 8400.00 -2300.00
v  4755.90 8400.00 -2740.00
v  5200.00 8400.00 -22500.00
v  4755.90 8400.00 -22260.00
v  -5200.00 3400.00 -22500.00
v  -5200.00 3400.00 -2300.00
v  -4749.83 3400.00 -2740.00
v  -4749.83 3400.00 -22260.00
v  5200.00 3400.00 -2300.00
v  4755.90 3400.00 -2740.00
v  5200.00 3400.00 -22500.00
v  4755.90 3400.00 -22260.00
v  -2675.00 5600.00 -2300.00
v  2675.00 5600.00 -2300.00
v  2675.00 5000.00 -2300.00
v  -2675.00 5000.00 -2300.00
v  2675.00 5600.00 -2740.00
v  -2675.00 5600.00 -2740.00
v  -2675.00 5000.00 -2740.00
v  2675.00 5000.00 -2740.00
# 24 vertices

vn 0.00 1.00 -0.00
vn -1.00 0.00 -0.00
vn 0.70 0.00 0.72
vn 1.00 0.00 -0.00
vn 0.47 0.00 -0.88
vn 0.70 0.00 -0.71
vn -0.70 0.00 -0.72
vn -0.48 0.00 -0.88
vn -0.70 0.00 0.71
vn 0.00 0.00 -1.00
vn -0.47 0.00 0.88
vn 0.00 0.00 1.00
vn 0.48 0.00 0.88
vn 0.00 -1.00 -0.00
# 14 vertex normals

vt 0.94 0.78 0.00
vt 0.36 0.78 0.00
vt 0.37 0.77 0.00
vt 0.93 0.77 0.00
vt 0.92 0.59 0.00
vt 0.62 0.59 0.00
vt 0.64 0.58 0.00
vt 0.91 0.58 0.00
vt 0.36 0.84 0.00
vt 0.94 0.84 0.00
vt 0.93 0.85 0.00
vt 0.37 0.85 0.00
vt 0.02 0.96 0.00
vt 0.32 0.96 0.00
vt 0.31 0.96 0.00
vt 0.03 0.96 0.00
vt 0.60 0.16 0.00
vt 0.02 0.16 0.00
vt 0.02 0.02 0.00
vt 0.60 0.02 0.00
vt 0.36 0.93 0.00
vt 0.36 0.91 0.00
vt 0.51 0.91 0.00
vt 0.51 0.93 0.00
vt 0.58 0.72 0.00
vt 0.02 0.72 0.00
vt 0.02 0.58 0.00
vt 0.58 0.58 0.00
vt 0.56 0.93 0.00
vt 0.56 0.91 0.00
vt 0.71 0.91 0.00
vt 0.71 0.93 0.00
vt 0.94 0.35 0.00
vt 0.93 0.35 0.00
vt 0.93 0.21 0.00
vt 0.94 0.21 0.00
vt 0.66 0.35 0.00
vt 0.64 0.35 0.00
vt 0.64 0.21 0.00
vt 0.66 0.21 0.00
vt 0.60 0.35 0.00
vt 0.02 0.35 0.00
vt 0.02 0.21 0.00
vt 0.60 0.21 0.00
vt 0.83 0.65 0.00
vt 0.83 0.64 0.00
vt 0.97 0.64 0.00
vt 0.97 0.65 0.00
vt 0.58 0.54 0.00
vt 0.02 0.54 0.00
vt 0.02 0.39 0.00
vt 0.58 0.39 0.00
vt 0.62 0.66 0.00
vt 0.62 0.64 0.00
vt 0.77 0.64 0.00
vt 0.77 0.66 0.00
vt 0.32 0.91 0.00
vt 0.02 0.91 0.00
vt 0.02 0.77 0.00
vt 0.32 0.77 0.00
vt 0.94 0.16 0.00
vt 0.93 0.16 0.00
vt 0.93 0.02 0.00
vt 0.94 0.02 0.00
vt 0.66 0.16 0.00
vt 0.66 0.02 0.00
vt 0.64 0.16 0.00
vt 0.64 0.02 0.00
vt 0.62 0.39 0.00
vt 0.85 0.47 0.00
vt 0.70 0.47 0.00
vt 0.70 0.49 0.00
vt 0.85 0.49 0.00
vt 0.92 0.39 0.00
vt 0.92 0.54 0.00
vt 0.62 0.54 0.00
vt 0.87 0.29 0.00
vt 0.72 0.29 0.00
vt 0.72 0.30 0.00
vt 0.87 0.30 0.00
vt 0.98 0.72 0.00
vt 0.83 0.72 0.00
vt 0.83 0.71 0.00
vt 0.98 0.71 0.00
vt 0.84 0.97 0.00
vt 0.86 0.97 0.00
vt 0.86 0.98 0.00
vt 0.84 0.98 0.00
vt 0.77 0.92 0.00
vt 0.77 0.91 0.00
vt 0.92 0.91 0.00
vt 0.92 0.92 0.00
vt 0.77 0.97 0.00
vt 0.78 0.97 0.00
vt 0.78 0.98 0.00
vt 0.77 0.98 0.00
# 96 texture coords

g Box162
s off
f 1/1/1 2/2/1 3/3/1 4/4/1 
f 2/5/1 5/6/1 6/7/1 3/8/1 
f 5/9/1 7/10/1 8/11/1 6/12/1 
f 7/13/1 1/14/1 4/15/1 8/16/1 
f 9/17/2 10/18/2 2/19/2 1/20/2 
f 10/21/3 11/22/3 3/23/3 2/24/3 
f 11/25/4 12/26/4 4/27/4 3/28/4 
f 12/29/5 9/30/5 1/31/5 4/32/5 
f 13/33/6 14/34/6 6/35/6 5/36/6 
f 11/37/7 10/38/7 2/39/7 3/40/7 
f 13/41/4 15/42/4 7/43/4 5/44/4 
f 15/45/8 16/46/8 8/47/8 7/48/8 
f 16/49/2 14/50/2 6/51/2 8/52/2 
f 14/53/9 13/54/9 5/55/9 6/56/9 
f 15/57/10 9/58/10 1/59/10 7/60/10 
f 9/61/11 12/62/11 4/63/11 1/64/11 
f 12/62/12 16/65/12 8/66/12 4/63/12 
f 16/65/13 15/67/13 7/68/13 8/66/13 
f 5/69/12 17/70/12 18/71/12 19/72/12 20/73/12 17/70/12 5/69/12 2/74/12 10/75/12 13/76/12 
f 3/40/10 21/77/10 22/78/10 23/79/10 24/80/10 21/77/10 3/40/10 6/35/10 14/34/10 11/37/10 
f 20/81/1 19/82/1 24/83/1 23/84/1 
f 19/85/2 18/86/2 21/87/2 24/88/2 
f 21/89/14 18/90/14 17/91/14 22/92/14 
f 23/93/4 22/94/4 17/95/4 20/96/4 
# 24 polygons

#
# object Box208
#

v  -5150.00 8239.25 -2350.00
v  -5150.00 8239.25 -22450.00
v  5150.00 8239.25 -22450.00
v  5150.00 8239.25 -2350.00
v  -5150.00 8339.25 -2350.00
v  5150.00 8339.25 -2350.00
v  5150.00 8339.25 -22450.00
v  -5150.00 8339.25 -22450.00
# 8 vertices

vn 0.00 -1.00 -0.00
vn 0.00 1.00 -0.00
vn 0.00 0.00 1.00
vn 1.00 0.00 -0.00
vn 0.00 0.00 -1.00
vn -1.00 0.00 -0.00
# 6 vertex normals

vt 0.74 0.39 0.00
vt 0.02 0.39 0.00
vt 0.02 0.02 0.00
vt 0.74 0.02 0.00
vt 0.02 0.82 0.00
vt 0.02 0.45 0.00
vt 0.74 0.45 0.00
vt 0.74 0.82 0.00
vt 0.39 0.98 0.00
vt 0.02 0.98 0.00
vt 0.74 0.93 0.00
vt 0.02 0.93 0.00
vt 0.81 0.98 0.00
vt 0.44 0.98 0.00
vt 0.74 0.88 0.00
vt 0.02 0.88 0.00
# 16 texture coords

g Box208
s 2
f 25/97/15 26/98/15 27/99/15 28/100/15 
s 4
f 29/101/16 30/102/16 31/103/16 32/104/16 
s 8
f 25/105/17 28/106/17 30/106/17 29/105/17 
s 16
f 28/107/18 27/108/18 31/108/18 30/107/18 
s 32
f 27/109/19 26/110/19 32/110/19 31/109/19 
s 64
f 26/111/20 25/112/20 29/112/20 32/111/20 
# 6 polygons

#
# object Box209
#

v  -5150.00 3394.05 -2350.00
v  5150.00 3394.05 -2350.00
v  5150.00 3837.38 -2350.00
v  -5150.00 3837.38 -2350.00
v  5150.00 3394.05 -22450.00
v  5150.00 3837.38 -22450.00
v  -5150.00 3394.05 -22450.00
v  -5150.00 3837.38 -22450.00
v  421.39 3394.05 -7282.75
v  420.90 3394.05 -7281.58
v  -1019.95 3394.05 -6672.97
v  -1070.58 3394.05 -6514.70
v  -1096.40 3394.05 -6324.71
v  -1088.84 3394.05 -6133.11
v  -1048.12 3394.05 -5945.74
v  -975.49 3394.05 -5768.29
v  -873.14 3394.05 -5606.15
v  -744.19 3394.05 -5464.24
v  -592.56 3394.05 -5346.88
v  -422.85 3394.05 -5257.63
v  -240.23 3394.05 -5199.21
v  -50.23 3394.05 -5173.39
v  141.36 3394.05 -5180.95
v  328.73 3394.05 -5221.67
v  506.18 3394.05 -5294.31
v  668.33 3394.05 -5396.65
v  810.23 3394.05 -5525.60
v  927.59 3394.05 -5677.23
v  1016.84 3394.05 -5846.94
v  1075.26 3394.05 -6029.56
v  1101.08 3394.05 -6219.56
v  1093.52 3394.05 -6411.15
v  1052.80 3394.05 -6598.52
v  980.17 3394.05 -6775.98
v  877.82 3394.05 -6938.12
v  748.87 3394.05 -7080.03
v  597.24 3394.05 -7197.39
v  427.53 3394.05 -7286.63
v  422.04 3394.05 -7284.30
v  421.77 3394.05 -7283.66
v  -1019.95 3837.38 -6672.97
v  -11.35 3837.38 -6250.25
v  420.35 3837.38 -7280.27
v  427.53 3837.38 -7286.63
v  425.42 3837.38 -7292.38
v  597.24 3837.38 -7197.39
v  748.87 3837.38 -7080.03
v  877.82 3837.38 -6938.12
v  980.17 3837.38 -6775.98
v  988.58 3837.38 -6762.65
v  1052.80 3837.38 -6598.52
v  1093.52 3837.38 -6411.15
v  1101.08 3837.38 -6219.56
v  1075.26 3837.38 -6029.56
v  1016.84 3837.38 -5846.94
v  927.59 3837.38 -5677.23
v  810.23 3837.38 -5525.60
v  668.33 3837.38 -5396.65
v  506.18 3837.38 -5294.31
v  328.73 3837.38 -5221.67
v  141.36 3837.38 -5180.95
v  -50.23 3837.38 -5173.39
v  -240.23 3837.38 -5199.21
v  -422.85 3837.38 -5257.63
v  -592.56 3837.38 -5346.88
v  -744.19 3837.38 -5464.24
v  -873.14 3837.38 -5606.15
v  -975.49 3837.38 -5768.29
v  -1048.12 3837.38 -5945.74
v  -1088.84 3837.38 -6133.11
v  -1096.40 3837.38 -6324.71
v  -1070.58 3837.38 -6514.70
v  -11.35 3394.05 -6250.25
v  423.55 3394.05 -7287.91
v  423.55 3837.38 -7287.91
v  420.35 3394.05 -7280.27
# 76 vertices

vn 0.00 0.00 1.00
vn 1.00 0.00 -0.00
vn 0.00 0.00 -1.00
vn -1.00 0.00 -0.00
vn -0.00 -1.00 -0.00
vn 0.00 -1.00 -0.00
vn 0.00 1.00 -0.00
vn -0.92 -0.00 -0.39
vn -0.92 0.00 -0.39
vn -0.98 -0.00 -0.22
vn -1.00 -0.00 -0.05
vn -0.99 0.00 0.13
vn -0.95 0.00 0.30
vn -0.89 0.00 0.46
vn -0.80 0.00 0.61
vn -0.68 0.00 0.73
vn -0.54 0.00 0.84
vn -0.39 0.00 0.92
vn 0.98 -0.00 0.22
vn 0.98 0.00 0.22
vn 1.00 -0.00 0.05
vn 0.99 -0.00 -0.13
vn 0.99 0.00 -0.13
vn 0.95 -0.00 -0.30
vn 0.95 0.00 -0.30
vn 0.89 -0.00 -0.46
vn 0.80 -0.00 -0.61
vn 0.68 -0.00 -0.73
vn 0.68 0.00 -0.73
vn 0.54 0.00 -0.84
vn 0.39 0.00 -0.92
vn 0.39 -0.00 -0.92
vn 0.22 -0.00 -0.98
vn 0.05 -0.00 -1.00
vn 0.05 0.00 -1.00
vn -0.13 -0.00 -0.99
vn -0.30 -0.00 -0.95
vn -0.30 0.00 -0.95
vn -0.46 0.00 -0.89
vn -0.61 0.00 -0.80
vn -0.73 0.00 -0.68
vn -0.84 0.00 -0.54
vn -0.84 -0.00 -0.54
vn 0.95 0.00 0.30
vn 0.92 -0.00 0.39
vn 0.92 0.00 0.39
vn -0.30 0.00 0.95
# 47 vertex normals

vt 0.38 0.98 0.00
vt 0.02 0.98 0.00
vt 0.02 0.96 0.00
vt 0.38 0.96 0.00
vt 0.71 0.92 0.00
vt 0.02 0.92 0.00
vt 0.02 0.91 0.00
vt 0.71 0.91 0.00
vt 0.77 0.98 0.00
vt 0.42 0.98 0.00
vt 0.42 0.96 0.00
vt 0.77 0.96 0.00
vt 0.71 0.86 0.00
vt 0.02 0.86 0.00
vt 0.02 0.85 0.00
vt 0.71 0.85 0.00
vt 0.54 0.18 0.00
vt 0.56 0.23 0.00
vt 0.57 0.23 0.00
vt 0.58 0.24 0.00
vt 0.59 0.23 0.00
vt 0.60 0.23 0.00
vt 0.61 0.22 0.00
vt 0.61 0.21 0.00
vt 0.62 0.21 0.00
vt 0.71 0.02 0.00
vt 0.71 0.38 0.00
vt 0.02 0.38 0.00
vt 0.02 0.02 0.00
vt 0.62 0.20 0.00
vt 0.62 0.19 0.00
vt 0.61 0.19 0.00
vt 0.61 0.18 0.00
vt 0.61 0.17 0.00
vt 0.60 0.17 0.00
vt 0.59 0.16 0.00
vt 0.58 0.16 0.00
vt 0.57 0.16 0.00
vt 0.56 0.16 0.00
vt 0.56 0.17 0.00
vt 0.55 0.17 0.00
vt 0.55 0.18 0.00
vt 0.17 0.65 0.00
vt 0.15 0.61 0.00
vt 0.19 0.60 0.00
vt 0.19 0.59 0.00
vt 0.18 0.59 0.00
vt 0.18 0.58 0.00
vt 0.17 0.58 0.00
vt 0.17 0.57 0.00
vt 0.16 0.57 0.00
vt 0.15 0.57 0.00
vt 0.14 0.58 0.00
vt 0.13 0.58 0.00
vt 0.13 0.59 0.00
vt 0.12 0.59 0.00
vt 0.12 0.60 0.00
vt 0.12 0.61 0.00
vt 0.12 0.62 0.00
vt 0.12 0.63 0.00
vt 0.13 0.64 0.00
vt 0.14 0.64 0.00
vt 0.14 0.65 0.00
vt 0.15 0.65 0.00
vt 0.16 0.65 0.00
vt 0.71 0.79 0.00
vt 0.02 0.79 0.00
vt 0.02 0.43 0.00
vt 0.71 0.43 0.00
vt 0.79 0.04 0.00
vt 0.79 0.02 0.00
vt 0.80 0.02 0.00
vt 0.80 0.04 0.00
vt 0.81 0.02 0.00
vt 0.81 0.04 0.00
vt 0.82 0.04 0.00
vt 0.82 0.02 0.00
vt 0.83 0.04 0.00
vt 0.83 0.02 0.00
vt 0.77 0.08 0.00
vt 0.79 0.08 0.00
vt 0.78 0.45 0.00
vt 0.78 0.43 0.00
vt 0.79 0.45 0.00
vt 0.79 0.43 0.00
vt 0.80 0.43 0.00
vt 0.80 0.45 0.00
vt 0.81 0.43 0.00
vt 0.81 0.45 0.00
vt 0.82 0.43 0.00
vt 0.82 0.45 0.00
vt 0.76 0.92 0.00
vt 0.76 0.91 0.00
vt 0.77 0.91 0.00
vt 0.77 0.92 0.00
vt 0.78 0.92 0.00
vt 0.78 0.91 0.00
vt 0.79 0.92 0.00
vt 0.79 0.91 0.00
vt 0.78 0.04 0.00
vt 0.78 0.02 0.00
vt 0.77 0.45 0.00
vt 0.77 0.43 0.00
vt 0.86 0.96 0.00
vt 0.86 0.98 0.00
vt 0.82 0.98 0.00
vt 0.82 0.96 0.00
vt 0.76 0.86 0.00
vt 0.76 0.85 0.00
vt 0.80 0.85 0.00
vt 0.80 0.86 0.00
vt 0.84 0.02 0.00
vt 0.84 0.04 0.00
vt 0.77 0.02 0.00
vt 0.77 0.04 0.00
vt 0.58 0.20 0.00
# 116 texture coords

g Box209
s 8
f 33/113/21 34/114/21 35/115/21 36/116/21 
s 16
f 34/117/22 37/118/22 38/119/22 35/120/22 
s 32
f 37/121/23 39/122/23 40/123/23 38/124/23 
s 64
f 39/125/24 33/126/24 36/127/24 40/128/24 
s 2
f 41/129/25 42/129/26 43/130/26 44/131/26 45/132/26 46/132/26 47/133/26 48/134/26 49/134/26 50/135/26 51/135/26 52/136/26 53/137/26 34/138/26 33/139/26 39/140/26 37/141/25 34/138/26 53/137/26 54/142/26 55/143/26 56/144/26 57/145/26 58/146/26 59/147/26 60/147/26 61/148/26 62/148/26 63/149/26 64/150/26 65/150/26 66/151/26 67/152/26 68/153/26 69/154/26 70/129/25 71/129/25 72/129/25 
s 4
f 73/155/27 74/156/27 75/157/27 76/157/27 77/157/27 78/158/27 79/159/27 80/160/27 81/161/27 82/161/27 83/162/27 84/163/27 85/164/27 86/164/27 87/165/27 88/166/27 89/166/27 90/167/27 91/168/27 92/169/27 93/170/27 94/170/27 95/171/27 96/172/27 97/172/27 98/173/27 99/173/27 100/174/27 101/175/27 102/176/27 103/177/27 104/177/27 73/155/27 40/178/27 36/179/27 35/180/27 38/181/27 40/178/27 
s 8
f 61/182/28 87/183/29 86/184/30 62/185/30 
f 63/185/31 85/184/31 84/186/32 64/187/32 
f 65/188/33 83/189/33 81/189/34 66/188/34 
f 67/190/35 80/191/35 79/191/36 68/190/36 
f 69/192/37 78/193/37 76/193/38 70/192/38 
f 44/194/39 104/195/40 103/195/41 45/194/41 
f 46/196/42 102/197/43 101/198/44 47/199/45 
f 48/199/46 100/198/46 99/200/47 49/201/47 
f 50/201/48 98/200/49 97/202/50 51/203/50 
f 52/204/51 96/205/52 95/206/53 53/207/53 
f 54/208/54 94/209/55 93/209/56 55/208/56 
f 56/210/57 92/211/58 91/211/59 57/210/59 
f 58/212/60 90/213/60 89/213/61 59/212/61 
f 87/183/29 61/182/28 60/212/62 88/213/63 
f 104/195/40 44/194/39 43/214/64 73/215/64 
s 2
f 73/216/38 43/217/38 105/218/38 74/219/38 
s 16
f 106/220/65 107/221/66 75/221/65 74/222/66 105/223/66 
s 8
f 86/184/30 85/184/31 63/185/31 62/185/30 
f 84/186/32 83/189/33 65/188/33 64/187/32 
f 81/189/34 80/191/35 67/190/35 66/188/34 
f 79/191/36 78/224/37 69/225/37 68/190/36 
f 103/195/41 102/197/43 46/196/42 45/194/41 
f 101/198/44 100/198/46 48/199/46 47/199/45 
f 99/200/47 98/200/49 50/201/48 49/201/47 
f 97/205/50 96/205/52 52/204/51 51/204/50 
f 95/206/53 94/209/55 54/208/54 53/207/53 
f 93/209/56 92/211/58 56/210/57 55/208/56 
f 91/226/59 90/213/60 58/212/60 57/227/59 
f 89/213/61 88/213/63 60/212/62 59/212/61 
f 76/193/38 107/193/67 106/192/67 70/192/38 
s 2
f 105/228/26 43/130/26 42/129/26 108/129/26 
# 37 polygons

