# 3ds Max Wavefront OBJ Exporter v0.97b - (c)2007 guruware
# File Created: 02.02.2017 09:29:56

#
# object lamp
#

v  -87.40 419.55 3911.61
v  -87.40 419.55 6369.04
v  -86.07 419.55 6378.35
v  -82.07 419.55 6385.00
v  -75.42 419.55 6389.00
v  -66.11 419.55 6390.33
v  91.32 419.55 6390.33
v  100.63 419.55 6389.00
v  107.28 419.55 6385.00
v  111.27 419.55 6378.35
v  112.60 419.55 6369.04
v  112.60 419.55 3911.61
v  111.27 419.55 3902.30
v  107.28 419.55 3895.65
v  100.63 419.55 3891.66
v  91.32 419.55 3890.33
v  -66.11 419.55 3890.33
v  -75.42 419.55 3891.66
v  -82.07 419.55 3895.65
v  -86.07 419.55 3902.30
v  -66.11 369.55 6390.32
v  91.32 369.55 6390.32
v  -87.40 369.55 3911.61
v  -87.40 369.55 6369.03
v  91.32 369.55 3890.32
v  -66.11 369.55 3890.32
v  112.60 369.55 6369.03
v  112.60 369.55 3911.61
v  -75.42 369.55 6388.99
v  100.63 369.55 6388.99
v  -86.07 369.55 3902.30
v  100.63 369.55 3891.65
v  -82.07 369.55 6385.00
v  -86.07 369.55 6378.35
v  107.28 369.55 6385.00
v  111.27 369.55 6378.35
v  -82.07 369.55 3895.64
v  -75.42 369.55 3891.65
v  107.28 369.55 3895.64
v  111.27 369.55 3902.30
v  -65.04 369.55 6375.32
v  90.25 369.55 6375.32
v  -70.30 369.55 6374.57
v  -71.14 369.55 6374.07
v  -71.65 369.55 6373.23
v  -72.40 369.55 6367.97
v  -72.40 369.55 3912.67
v  -71.65 369.55 3907.42
v  -71.14 369.55 3906.58
v  -70.30 369.55 3906.07
v  -65.04 369.55 3905.32
v  90.25 369.55 3905.32
v  95.51 369.55 3906.07
v  96.35 369.55 3906.58
v  96.85 369.55 3907.42
v  97.60 369.55 3912.67
v  97.60 369.55 6367.97
v  96.85 369.55 6373.23
v  96.35 369.55 6374.07
v  95.51 369.55 6374.57
v  -65.04 379.55 6375.32
v  90.25 379.55 6375.32
v  -70.30 379.55 6374.57
v  -71.14 379.55 6374.07
v  -71.65 379.55 6373.23
v  -72.40 379.55 6367.97
v  -72.40 379.55 3912.67
v  -71.65 379.55 3907.42
v  -71.14 379.55 3906.58
v  -70.30 379.55 3906.07
v  -65.04 379.55 3905.32
v  90.25 379.55 3905.32
v  95.51 379.55 3906.07
v  96.35 379.55 3906.58
v  96.85 379.55 3907.42
v  97.60 379.55 3912.67
v  97.60 379.55 6367.97
v  96.85 379.55 6373.23
v  96.35 379.55 6374.07
v  95.51 379.55 6374.57
# 80 vertices

vn 0.00 1.00 -0.00
vn 0.07 -0.00 1.00
vn -0.07 -0.00 1.00
vn -1.00 -0.00 0.07
vn -1.00 0.00 -0.07
vn -0.07 0.00 -1.00
vn 0.07 0.00 -1.00
vn 1.00 0.00 -0.07
vn 1.00 -0.00 0.07
vn -0.33 -0.00 0.94
vn 0.33 -0.00 0.94
vn -0.94 0.00 -0.33
vn 0.33 0.00 -0.94
vn -0.71 -0.00 0.71
vn -0.94 -0.00 0.33
vn 0.71 -0.00 0.71
vn 0.94 -0.00 0.33
vn -0.71 0.00 -0.71
vn -0.33 0.00 -0.94
vn 0.71 0.00 -0.71
vn 0.94 0.00 -0.33
vn -0.00 -1.00 -0.00
vn 0.00 0.00 -1.00
vn 0.14 -0.00 -0.99
vn 0.51 -0.00 -0.86
vn 0.86 -0.00 -0.51
vn 0.99 -0.00 -0.14
vn 1.00 -0.00 -0.00
vn 0.99 -0.00 0.14
vn 0.86 -0.00 0.51
vn 0.51 -0.00 0.86
vn 0.14 -0.00 0.99
vn 0.00 0.00 1.00
vn -0.14 0.00 0.99
vn -0.51 0.00 0.86
vn -0.86 0.00 0.51
vn -0.99 0.00 0.14
vn -1.00 0.00 -0.00
vn -0.99 0.00 -0.14
vn -0.86 0.00 -0.51
vn -0.51 0.00 -0.86
vn -0.14 0.00 -0.99
# 42 vertex normals

vt 0.03 0.13 0.00
vt 0.97 0.13 0.00
vt 0.98 0.13 0.00
vt 0.98 0.14 0.00
vt 0.98 0.20 0.00
vt 0.98 0.21 0.00
vt 0.97 0.21 0.00
vt 0.03 0.21 0.00
vt 0.02 0.21 0.00
vt 0.02 0.20 0.00
vt 0.02 0.14 0.00
vt 0.02 0.13 0.00
vt 0.08 0.46 0.00
vt 0.02 0.46 0.00
vt 0.02 0.44 0.00
vt 0.08 0.44 0.00
vt 0.97 0.26 0.00
vt 0.03 0.26 0.00
vt 0.03 0.24 0.00
vt 0.97 0.24 0.00
vt 0.08 0.42 0.00
vt 0.02 0.42 0.00
vt 0.02 0.40 0.00
vt 0.08 0.40 0.00
vt 0.97 0.31 0.00
vt 0.03 0.31 0.00
vt 0.03 0.29 0.00
vt 0.97 0.29 0.00
vt 0.09 0.46 0.00
vt 0.09 0.44 0.00
vt 0.02 0.24 0.00
vt 0.02 0.26 0.00
vt 0.98 0.24 0.00
vt 0.98 0.26 0.00
vt 0.02 0.31 0.00
vt 0.02 0.29 0.00
vt 0.09 0.40 0.00
vt 0.09 0.42 0.00
vt 0.98 0.29 0.00
vt 0.98 0.31 0.00
vt 0.02 0.09 0.00
vt 0.02 0.03 0.00
vt 0.03 0.03 0.00
vt 0.03 0.09 0.00
vt 0.02 0.02 0.00
vt 0.03 0.02 0.00
vt 0.97 0.02 0.00
vt 0.97 0.03 0.00
vt 0.98 0.02 0.00
vt 0.98 0.03 0.00
vt 0.98 0.09 0.00
vt 0.97 0.09 0.00
vt 0.98 0.10 0.00
vt 0.97 0.10 0.00
vt 0.03 0.10 0.00
vt 0.02 0.10 0.00
vt 0.02 0.49 0.00
vt 0.08 0.49 0.00
vt 0.02 0.37 0.00
vt 0.97 0.37 0.00
vt 0.11 0.40 0.00
vt 0.12 0.40 0.00
vt 0.18 0.40 0.00
vt 0.02 0.34 0.00
vt 0.97 0.34 0.00
# 65 texture coords

g lamp
s 1
f 1/1/1 2/2/1 3/3/1 4/3/1 5/4/1 6/4/1 7/5/1 8/5/1 9/6/1 10/6/1 11/7/1 12/8/1 13/9/1 14/9/1 15/10/1 16/10/1 17/11/1 18/11/1 19/12/1 20/12/1 
s 2
f 7/13/2 6/14/3 21/15/3 22/16/2 
f 2/17/4 1/18/5 23/19/5 24/20/4 
f 17/21/6 16/22/7 25/23/7 26/24/6 
f 12/25/8 11/26/9 27/27/9 28/28/8 
f 29/15/10 21/15/3 6/14/3 5/14/10 
f 8/29/11 7/13/2 22/16/2 30/30/11 
f 31/31/12 23/19/5 1/18/5 20/32/12 
f 32/23/13 25/23/7 16/22/7 15/22/13 
f 33/33/14 29/33/10 5/34/10 4/34/14 
f 34/20/15 33/33/14 4/34/14 3/17/15 
f 24/20/4 34/20/15 3/17/15 2/17/4 
f 9/35/16 8/35/11 30/36/11 35/36/16 
f 10/35/17 9/35/16 35/36/16 36/36/17 
f 11/26/9 10/35/17 36/36/17 27/27/9 
f 37/31/18 31/31/12 20/32/12 19/32/18 
f 38/31/19 37/31/18 19/32/18 18/32/19 
f 26/24/6 38/37/19 18/38/19 17/21/6 
f 39/39/20 32/39/13 15/40/13 14/40/20 
f 40/28/21 39/39/20 14/40/20 13/25/21 
f 28/28/8 40/28/21 13/25/21 12/25/8 
s off
f 22/41/22 21/42/22 41/43/22 42/44/22 
f 21/42/22 29/45/22 43/43/22 41/43/22 
f 29/45/22 33/45/22 44/43/22 43/43/22 
f 33/45/22 34/45/22 45/43/22 44/43/22 
f 34/45/22 24/46/22 46/43/22 45/43/22 
f 24/46/22 23/47/22 47/48/22 46/43/22 
f 23/47/22 31/49/22 48/48/22 47/48/22 
f 31/49/22 37/49/22 49/48/22 48/48/22 
f 37/49/22 38/49/22 50/48/22 49/48/22 
f 38/49/22 26/50/22 51/48/22 50/48/22 
f 26/50/22 25/51/22 52/52/22 51/48/22 
f 25/51/22 32/51/22 53/52/22 52/52/22 
f 32/51/22 39/51/22 54/52/22 53/52/22 
f 39/51/22 40/53/22 55/52/22 54/52/22 
f 40/53/22 28/54/22 56/52/22 55/52/22 
f 28/54/22 27/55/22 57/44/22 56/52/22 
f 27/55/22 36/56/22 58/44/22 57/44/22 
f 36/56/22 35/41/22 59/44/22 58/44/22 
f 35/41/22 30/41/22 60/44/22 59/44/22 
f 30/41/22 22/41/22 42/44/22 60/44/22 
f 42/57/23 41/58/23 61/58/23 62/57/23 
f 41/58/24 43/58/24 63/58/24 61/58/24 
f 43/59/25 44/59/25 64/59/25 63/59/25 
f 44/59/26 45/59/26 65/59/26 64/59/26 
f 45/59/27 46/59/27 66/59/27 65/59/27 
f 46/59/28 47/60/28 67/60/28 66/59/28 
f 47/60/29 48/60/29 68/60/29 67/60/29 
f 48/60/30 49/60/30 69/60/30 68/60/30 
f 49/60/31 50/60/31 70/60/31 69/60/31 
f 50/61/32 51/62/32 71/62/32 70/61/32 
f 51/62/33 52/63/33 72/63/33 71/62/33 
f 52/63/34 53/63/34 73/63/34 72/63/34 
f 53/64/35 54/64/35 74/64/35 73/64/35 
f 54/64/36 55/64/36 75/64/36 74/64/36 
f 55/64/37 56/64/37 76/64/37 75/64/37 
f 56/64/38 57/65/38 77/65/38 76/64/38 
f 57/65/39 58/65/39 78/65/39 77/65/39 
f 58/65/40 59/65/40 79/65/40 78/65/40 
f 59/65/41 60/65/41 80/65/41 79/65/41 
f 60/57/42 42/57/42 62/57/42 80/57/42 
# 61 polygons

#
# object const_lamp
#

v  26.31 391.34 6112.00
v  26.31 391.34 6092.00
v  46.31 391.34 6092.00
v  46.31 391.34 6112.00
v  26.31 4391.34 6112.00
v  46.31 4391.34 6112.00
v  46.31 4391.34 6092.00
v  26.31 4391.34 6092.00
# 8 vertices

vn 0.00 -1.00 -0.00
vn 0.00 1.00 -0.00
vn 0.00 0.00 1.00
vn 1.00 0.00 -0.00
vn 0.00 0.00 -1.00
vn -1.00 0.00 -0.00
# 6 vertex normals

vt 0.02 0.09 0.00
vt 0.02 0.08 0.00
vt 0.02 0.10 0.00
vt 0.02 0.06 0.00
vt 0.02 0.05 0.00
vt 0.98 0.05 0.00
vt 0.98 0.06 0.00
vt 0.02 0.07 0.00
vt 0.98 0.07 0.00
vt 0.02 0.04 0.00
vt 0.98 0.04 0.00
vt 0.02 0.02 0.00
vt 0.98 0.02 0.00
# 13 texture coords

g const_lamp
s 2
f 81/66/43 82/67/43 83/67/43 84/66/43 
s 4
f 85/66/44 86/66/44 87/68/44 88/68/44 
s 8
f 81/69/45 84/70/45 86/71/45 85/72/45 
s 16
f 84/73/46 83/73/46 87/74/46 86/74/46 
s 32
f 83/75/47 82/75/47 88/76/47 87/76/47 
s 64
f 82/77/48 81/77/48 85/78/48 88/78/48 
# 6 polygons

#
# object constr_lamp2
#

v  26.31 391.34 4201.73
v  26.31 391.34 4181.73
v  46.31 391.34 4181.73
v  46.31 391.34 4201.73
v  26.31 4391.34 4201.73
v  46.31 4391.34 4201.73
v  46.31 4391.34 4181.73
v  26.31 4391.34 4181.73
# 8 vertices

vn 0.00 -1.00 -0.00
vn 0.00 1.00 -0.00
vn 0.00 0.00 1.00
vn 1.00 0.00 -0.00
vn 0.00 0.00 -1.00
vn -1.00 0.00 -0.00
# 6 vertex normals

vt 0.02 0.09 0.00
vt 0.02 0.08 0.00
vt 0.02 0.10 0.00
vt 0.02 0.06 0.00
vt 0.02 0.05 0.00
vt 0.98 0.05 0.00
vt 0.98 0.06 0.00
vt 0.02 0.07 0.00
vt 0.98 0.07 0.00
vt 0.02 0.04 0.00
vt 0.98 0.04 0.00
vt 0.02 0.02 0.00
vt 0.98 0.02 0.00
# 13 texture coords

g constr_lamp2
s 2
f 89/79/49 90/80/49 91/80/49 92/79/49 
s 4
f 93/79/50 94/79/50 95/81/50 96/81/50 
s 8
f 89/82/51 92/83/51 94/84/51 93/85/51 
s 16
f 92/86/52 91/86/52 95/87/52 94/87/52 
s 32
f 91/88/53 90/88/53 96/89/53 95/89/53 
s 64
f 90/90/54 89/90/54 93/91/54 96/91/54 
# 6 polygons

#
# object light
#

v  -65.04 379.55 3905.32
v  90.25 379.55 3905.32
v  95.51 379.55 3906.07
v  96.35 379.55 3906.58
v  96.85 379.55 3907.42
v  97.60 379.55 3912.67
v  97.60 379.55 6367.97
v  96.85 379.55 6373.23
v  96.35 379.55 6374.07
v  95.51 379.55 6374.57
v  90.25 379.55 6375.32
v  -65.04 379.55 6375.32
v  -70.30 379.55 6374.57
v  -71.14 379.55 6374.07
v  -71.65 379.55 6373.23
v  -72.40 379.55 6367.97
v  -72.40 379.55 3912.67
v  -71.65 379.55 3907.42
v  -71.14 379.55 3906.58
v  -70.30 379.55 3906.07
# 20 vertices

vn 0.00 -1.00 -0.00
# 1 vertex normals

vt 178.71 2500.00 0.00
vt 21.29 2500.00 0.00
vt 11.97 2498.67 0.00
vt 5.32 2494.68 0.00
vt 1.33 2488.03 0.00
vt 0.00 2478.71 0.00
vt 0.00 21.29 0.00
vt 1.33 11.97 0.00
vt 5.32 5.32 0.00
vt 11.97 1.33 0.00
vt 21.29 0.00 0.00
vt 178.71 0.00 0.00
vt 188.03 1.33 0.00
vt 194.68 5.32 0.00
vt 198.67 11.97 0.00
vt 200.00 21.29 0.00
vt 200.00 2478.71 0.00
vt 198.67 2488.03 0.00
vt 194.68 2494.68 0.00
vt 188.03 2498.67 0.00
# 20 texture coords

g light
s 1
f 97/92/55 98/93/55 99/94/55 100/95/55 101/96/55 102/97/55 103/98/55 104/99/55 105/100/55 106/101/55 107/102/55 108/103/55 109/104/55 110/105/55 111/106/55 112/107/55 113/108/55 114/109/55 115/110/55 116/111/55 
# 1 polygons

